<?xml version="1.0" encoding="utf-8"?>
<!-- Generator: Adobe Illustrator 24.0.1, SVG Export Plug-In . SVG Version: 6.00 Build 0)  -->
<svg version="1.1" id="图层_1" xmlns="http://www.w3.org/2000/svg" xmlns:xlink="http://www.w3.org/1999/xlink" x="0px" y="0px"
	 viewBox="0 0 256 256" style="enable-background:new 0 0 256 256;" xml:space="preserve">
<style type="text/css">
	.st0{fill:#333333;}
</style>
<g>
	<g>
		<path class="st0" d="M238.37,63.55l-111-63.36L17,64.64l0.63,127.81l111,63.36L239,191.36L238.37,63.55z M128.54,237.37
			l-94.99-54.22L33.01,73.78l94.45-55.15l94.99,54.22l0.54,109.37L128.54,237.37z"/>
		<polygon class="st0" points="169.11,88.97 169.22,63.03 86.27,110.03 86.15,136.11 120.08,116.83 119.28,209.31 129.31,214.49 
			138.24,208.59 139.13,106.01 		"/>
		<polygon class="st0" points="103.51,145.9 78.39,160.09 69.67,155.56 70.16,98.4 102.29,80.16 102.4,54.22 51.48,82.98 
			51.34,82.98 51.34,83.06 51.29,83.1 51.22,96.85 50.58,170.87 50.52,170.97 78.27,185.94 78.32,186.02 78.37,185.99 78.42,186.02 
			78.86,185.71 103.4,171.84 		"/>
		<polygon class="st0" points="205.13,117.26 205.24,91.32 157.36,117.93 157.25,142.62 156.76,198.87 175.81,187.85 176.29,133.38 
					"/>
		<polygon class="st0" points="189.46,142.16 189.34,168.24 205.39,159.21 205.49,133.27 		"/>
	</g>
</g>
</svg>
