<svg width="106" height="38" viewBox="0 0 106 38" fill="none" xmlns="http://www.w3.org/2000/svg">
<path d="M35.8031 25.1815L34.8549 29.7205L38.3052 30.9379L47.4634 24.4047L48.1792 20.7649L41.6149 25.4446L40.4097 25.0041L41.4681 20.9606L35.8031 25.1815Z" fill="#F39800"/>
<path d="M36.2864 21.9883L36.9655 18.5259L47.9407 10.7937L49.6414 11.1974L49.9901 11.6868L48.7298 18.0365L42.9119 22.184L43.6032 19.3946L45.3651 18.1344L45.7628 15.4673L36.2864 21.9883Z" fill="#F39800"/>
<path d="M103 4.66431L94.2517 16.5012L86.0417 27.9588L83.0134 28.6623L80.2054 17.5778L78.3028 17.6696L81.7471 13.259L83.4111 13.0449L85.7542 20.2633L87.1184 19.7861L99.7698 4.79277L103 4.66431Z" fill="#49256E"/>
<path d="M44.0865 26.3072C44.1504 26.2904 44.2173 26.2885 44.2821 26.3015C44.3469 26.3145 44.4078 26.3421 44.4604 26.3822C44.5129 26.4223 44.5555 26.4738 44.5851 26.5329C44.6147 26.592 44.6304 26.6571 44.631 26.7231C44.6616 27.0106 44.631 27.549 44.6983 27.8915C44.7656 28.2341 44.9308 28.5033 45.1082 28.3626C45.2856 28.2219 45.359 27.7508 45.3284 27.2431C45.3284 27.1819 45.359 27.1575 45.4141 27.1819C45.4691 27.2064 45.5486 27.341 45.567 27.5306C45.5904 27.7237 45.5638 27.9196 45.4899 28.0995C45.416 28.2794 45.2972 28.4374 45.1449 28.5583C44.7044 28.8336 44.4046 28.5583 44.2762 28.0506C44.1477 27.5428 44.2456 26.613 44.1293 26.6314C43.9072 26.8865 43.7722 27.2058 43.7439 27.5428C43.6771 28.1319 43.6978 28.7277 43.8051 29.3107C43.8051 29.3719 43.8051 29.4086 43.7194 29.3964C43.6338 29.3841 43.4136 29.2067 43.3402 28.9009C43.2289 28.232 43.1879 27.5534 43.2178 26.8761C43.2178 26.7965 43.2667 26.7782 43.3279 26.8088C43.412 26.8609 43.4839 26.9305 43.5388 27.0128C43.5937 27.0951 43.6302 27.1882 43.646 27.2859C43.7256 26.8944 43.903 26.3928 44.0865 26.3072Z" fill="#49256E"/>
<path d="M47.1821 27.0716C47.3839 26.9248 47.4512 26.4109 47.4084 25.946C47.4084 25.8848 47.4451 25.8604 47.4879 25.8849C47.5806 25.9761 47.6371 26.0978 47.647 26.2274C47.6722 26.4159 47.6477 26.6076 47.5758 26.7836C47.5038 26.9597 47.3871 27.1138 47.2371 27.2306C47.1854 27.2705 47.1256 27.2987 47.062 27.3132C46.9983 27.3278 46.9322 27.3284 46.8683 27.3151C46.8044 27.3017 46.7441 27.2747 46.6916 27.2358C46.6391 27.1969 46.5956 27.1472 46.5642 27.09C46.558 27.2431 46.5193 27.3932 46.4508 27.5303C46.3822 27.6674 46.2853 27.7883 46.1665 27.8852C45.6893 28.1911 45.1877 27.6038 45.2244 26.7229C45.2019 26.4461 45.2407 26.1678 45.338 25.9077C45.4352 25.6476 45.5886 25.4122 45.7872 25.2181C45.8313 25.1895 45.8809 25.1708 45.9329 25.1631C45.9848 25.1554 46.0377 25.1589 46.0882 25.1734C46.1386 25.1878 46.1854 25.213 46.2253 25.2471C46.2652 25.2812 46.2973 25.3234 46.3195 25.371C46.2606 24.6998 46.2361 24.026 46.2461 23.3523C46.2461 23.2483 46.3011 23.2238 46.3684 23.2728C46.5458 23.3951 46.6682 23.6276 46.6927 24.1476C46.7171 24.6675 46.7538 25.891 46.8395 26.5945C46.8823 26.9798 47.0108 27.194 47.1821 27.0716ZM45.6955 26.7107C45.6955 27.3224 45.9157 27.8057 46.1176 27.6833C46.3195 27.561 46.4174 27.0716 46.3684 26.4599C46.3134 25.7013 46.191 25.3343 46.0381 25.4199C45.7721 25.7949 45.6505 26.2532 45.6955 26.7107V26.7107Z" fill="#49256E"/>
<path d="M79.8812 3.82005L65.3578 27.2675L63.0514 31.0907L62.6293 30.5157L63.1493 26.6129L63.5836 25.8972L63.4185 24.0376L71.2185 6.29142L74.0694 5.47783L79.3061 1.67901L81.8327 1L79.8812 3.82005Z" fill="#49256E"/>
<path d="M85.5034 8.95874L70.7781 28.1669L69.8543 28.4116L65.9818 32.5346L63.5225 33.8376L68.1841 26.5091L77.6727 11.1671L78.4741 10.953L79.9546 9.83351L85.5034 8.95874Z" fill="#49256E"/>
<path d="M38.7519 3.51416L15.4006 13.6871L13.3267 18.1527L25.4275 21.817L3 37L33.8149 23.5481L34.5123 19.2416L20.1051 16.134L37.6079 6.29139L38.7519 3.51416Z" fill="#49256E"/>
<path d="M55.0372 24.1536L56.1506 17.6326L62.6537 15.2102L64.8928 16.4275L65.7309 14.6658L62.8006 12.9285L50.9873 16.764L49.0663 27.8362L51.2809 29.7203L64.281 24.3494L64.8928 22.5754L56.9826 25.5667L55.0372 24.1536Z" fill="#49256E"/>
</svg>
